<?xml version="1.0" encoding="UTF-8" standalone="no"?>
<svg
   xmlns:dc="http://purl.org/dc/elements/1.1/"
   xmlns:cc="http://creativecommons.org/ns#"
   xmlns:rdf="http://www.w3.org/1999/02/22-rdf-syntax-ns#"
   xmlns:svg="http://www.w3.org/2000/svg"
   xmlns="http://www.w3.org/2000/svg"
   xmlns:sodipodi="http://sodipodi.sourceforge.net/DTD/sodipodi-0.dtd"
   xmlns:inkscape="http://www.inkscape.org/namespaces/inkscape"
   sodipodi:docname="logo.svg"
   inkscape:version="1.0 (4035a4fb49, 2020-05-01)"
   id="svg1705"
   version="1.1"
   viewBox="0 0 100 45"
   height="45mm"
   width="100mm">
  <defs
     id="defs1699" />
  <sodipodi:namedview
     inkscape:window-maximized="1"
     inkscape:window-y="-8"
     inkscape:window-x="-8"
     inkscape:window-height="1537"
     inkscape:window-width="3840"
     fit-margin-bottom="0"
     fit-margin-right="0"
     fit-margin-left="0"
     fit-margin-top="0"
     showgrid="false"
     inkscape:document-rotation="0"
     inkscape:current-layer="layer1"
     inkscape:document-units="mm"
     inkscape:cy="116.34399"
     inkscape:cx="120.04748"
     inkscape:zoom="3.959798"
     inkscape:pageshadow="2"
     inkscape:pageopacity="0.0"
     borderopacity="1.0"
     bordercolor="#666666"
     pagecolor="#ffffff"
     id="base" />
  <metadata
     id="metadata1702">
    <rdf:RDF>
      <cc:Work
         rdf:about="">
        <dc:format>image/svg+xml</dc:format>
        <dc:type
           rdf:resource="http://purl.org/dc/dcmitype/StillImage" />
        <dc:title></dc:title>
      </cc:Work>
    </rdf:RDF>
  </metadata>
  <g
     transform="translate(-52.63332,-74.298325)"
     id="layer1"
     inkscape:groupmode="layer"
     inkscape:label="Layer 1">
    <g
       transform="translate(11.303538,-72.771425)"
       id="g1634">
      <path
         d="m 50.745355,174.1995 c 0.79375,-0.74083 2.01083,-0.76729 2.80458,-0.0794 l 7.99042,7.51416 c 0.21167,0.21167 0.21167,0.52917 0.0265,0.74084 -0.18521,0.1852 -0.47625,0.21166 -0.68792,0.0529 l -7.96396,-7.4877 c -0.39687,-0.37042 -0.97896,-0.37042 -1.37583,-0.0529 l -7.99042,7.51416 c -0.21166,0.21167 -0.55562,0.18521 -0.74083,-0.0265 -0.18521,-0.18522 -0.18521,-0.50272 -0.0265,-0.68792 z"
         class="st0"
         id="Path-2_3_-5"
         style="fill:#1a2037;stroke-width:0.264583" />
      <path
         d="m 58.815145,182.00471 c 0.34396,-0.1323 0.68792,0.10583 0.71438,0.42333 v 8.01687 c 0,0.84667 -0.66146,1.53459 -1.48167,1.5875 h -11.72104 c -0.84667,0 -1.53459,-0.66145 -1.5875,-1.48166 v -8.01688 c 0,-0.21166 0.13229,-0.44979 0.34396,-0.50271 0.34395,-0.13229 0.68791,0.10584 0.71437,0.42334 v 7.99041 c 0,0.26459 0.21167,0.50271 0.47625,0.52917 h 11.69459 c 0.26458,0 0.5027,-0.21167 0.52916,-0.47625 v -7.96396 c 0,-0.21166 0.10584,-0.44979 0.3175,-0.52916 z"
         class="st0"
         id="Path-3_3_-6"
         style="fill:#1a2037;stroke-width:0.264583" />
      <path
         d="m 52.200565,184.57116 c 1.00542,0 1.93146,0.39688 2.59292,1.11125 0.21166,0.21167 0.1852,0.55563 -0.0265,0.74084 -0.21167,0.21166 -0.55563,0.18521 -0.74084,-0.0265 -0.47625,-0.50271 -1.13771,-0.76731 -1.82562,-0.76731 -0.66146,0 -1.29646,0.2646 -1.77271,0.71438 -0.21167,0.21168 -0.55563,0.18522 -0.74083,0 -0.18521,-0.1852 -0.18521,-0.55563 0,-0.74082 0.66145,-0.66146 1.56104,-1.03188 2.51354,-1.03188 z"
         class="st1"
         id="Path_15_-6"
         style="fill:#3996d4;stroke-width:0.264583" />
      <path
         d="m 52.200565,182.50741 c 1.42875,0 2.75167,0.58209 3.70417,1.56105 0.21166,0.21166 0.1852,0.55562 -0.0265,0.74083 -0.21167,0.21167 -0.55563,0.18521 -0.74084,-0.0265 -0.76729,-0.79375 -1.82562,-1.24354 -2.93687,-1.24354 -1.08479,0 -2.09021,0.42333 -2.83104,1.1377 -0.21167,0.21167 -0.55563,0.18521 -0.74084,0 -0.21166,-0.21166 -0.18521,-0.55562 0,-0.74083 0.92604,-0.89958 2.19604,-1.42875 3.57188,-1.42875 z"
         class="st1"
         id="Path_14_-0"
         style="fill:#3996d4;stroke-width:0.264583" />
      <path
         d="m 52.200565,180.44366 c 1.85208,0 3.57187,0.74084 4.81542,2.0373 0.21166,0.21166 0.1852,0.55562 -0.0265,0.74083 -0.21167,0.18521 -0.55563,0.18521 -0.74084,-0.0265 -1.05833,-1.08479 -2.51354,-1.71979 -4.04812,-1.71979 -1.48167,0 -2.8575,0.58208 -3.91584,1.5875 -0.21166,0.21166 -0.555621,0.1852 -0.74083,0 -0.21167,-0.21167 -0.18521,-0.55563 0,-0.74084 1.24354,-1.19062 2.88396,-1.87854 4.65667,-1.87854 z"
         class="st1"
         id="Path_13_-6"
         style="fill:#3996d4;stroke-width:0.264583" />
      <circle
         r="1.0583333"
         cy="187.85199"
         cx="52.20055"
         class="st1"
         id="Oval_7_-6"
         style="fill:#3996d4;stroke-width:0.264583" />
    </g>
    <path
       style="opacity:0.2;fill:#1a2037;stroke-width:0.264583;enable-background:new"
       id="XMLID_76_-1"
       class="st2"
       d="m 94.037013,100.02579 c -0.132289,0 -0.264581,-0.0529 -0.370409,-0.158752 -2.725211,-2.83104 -4.20688,-6.53521 -4.20688,-10.45104 0,-8.30792 6.773339,-15.081253 15.081246,-15.081253 8.30792,0 15.08125,6.773333 15.08125,15.081253 0,3.91583 -1.48166,7.62 -4.20687,10.42458 -0.21167,0.211672 -0.52917,0.211672 -0.74084,0.0265 -0.21166,-0.21167 -0.21166,-0.52917 -0.0265,-0.74084 2.51355,-2.61937 3.88938,-6.05895 3.88938,-9.7102 0,-7.72584 -6.29708,-14.022923 -14.02292,-14.022923 -7.725826,0 -14.022907,6.297083 -14.022907,14.022923 0,3.65125 1.402292,7.09083 3.915831,9.73666 0.211669,0.21167 0.185211,0.55563 -0.0265,0.74084 -0.0794,0.10583 -0.211667,0.132292 -0.343956,0.132292 z" />
    <g
       style="fill:#fb5700;fill-opacity:1"
       id="Group-9_2_-1"
       transform="matrix(0.26458333,0,0,0.26458333,-65.559648,33.271404)">
      <path
         style="fill:#fb5700;fill-opacity:1"
         id="Path_12_-4"
         class="st3"
         d="m 639.3,184 c -8.3,0.2 -15.1,6.4 -16.3,14.5 l -0.1,0.5 h -0.6 c -8,0 -14.5,6.5 -14.5,14.5 0,7.8 6.1,14.2 13.9,14.5 h 3.1 c 0.5,0 1,-0.2 1.4,-0.6 l 30.2,-30.2 c 0.9,-1.1 0.3,-2.7 -0.9,-3.2 h -0.1 l -0.1,-0.2 c -2.7,-5.9 -8.7,-9.8 -15.4,-9.8 z m 1,4 c 5,0.2 9.4,3.2 11.4,7.7 l 0.2,0.4 L 624,224 h -2.2 c -7.9,-0.3 -13.6,-9.6 -7.3,-18 0.1,-0.2 0.3,-0.4 0.5,-0.5 3.8,-2.7 7.9,-3.1 11.3,-1.7 0.3,0.1 0.6,-0.1 0.6,-0.4 l -0.1,-2.5 c 0,-7.1 5.8,-12.9 13,-12.9 z" />
      <path
         style="fill:#fb5700;fill-opacity:1"
         id="Line_3_-7"
         class="st3"
         d="m 663.4,184.8 c 0.8,-0.8 2,-0.8 2.8,0 0.7,0.7 0.8,1.9 0.2,2.6 l -50.2,50.2 c -0.8,0.8 -2,0.8 -2.8,0 -0.7,-0.7 -0.8,-1.9 -0.2,-2.6 z" />
      <path
         style="fill:#fb5700;fill-opacity:1"
         id="Path_11_-3"
         class="st3"
         d="m 662.4,200.3 c 0.3,-0.9 1.1,-1.4 2.1,-1.4 2.6,0 5.1,0.7 7.2,1.9 4.7,2.6 7.6,7.3 7.6,12.7 0,7.7 -6.2,14 -14,14.5 h -0.5 -25 c -0.8,0 -1.7,-0.5 -1.9,-1.3 -0.5,-1.3 0.4,-2.6 1.6,-2.7 h 25.2 c 5.9,-0.2 10.6,-4.9 10.6,-10.5 0,-3.8 -2.1,-7.3 -5.6,-9.1 -1.7,-0.9 -3.5,-1.4 -5.5,-1.4 -1.2,0 -2.2,-1.3 -1.8,-2.7 z" />
    </g>
    <path
       style="fill:#3996d4;stroke-width:0.264583"
       id="XMLID_73_-9"
       class="st1"
       d="m 137.24347,103.78287 -1.82562,-1.27 c -0.0794,-0.0529 -0.13229,-0.0794 -0.23813,-0.0794 -0.29104,-0.0529 -0.55562,0.15875 -0.60854,0.44979 l -0.0794,0.47625 c -19.65854,-2.64583 -40.348947,-2.67228 -60.033947,-0.0264 l -0.0794,-0.47625 c 0,-0.0794 -0.0529,-0.15875 -0.0794,-0.23813 -0.15875,-0.23812 -0.50271,-0.29104 -0.74083,-0.13229 l -1.82563,1.27 c -0.10583,0.0529 -0.15875,0.15875 -0.21167,0.26458 -0.0794,0.26459 0.0529,0.58209 0.34396,0.66146 l 2.11667,0.71438 c 0.0794,0.0265 0.15875,0.0265 0.23812,0.0265 0.29105,-0.0529 0.50271,-0.3175 0.4498,-0.60855 l -0.0529,-0.44979 c 19.552699,-2.61937 40.163737,-2.61937 59.716447,0.0265 l -0.0794,0.44979 c 0,0.0794 0,0.15875 0.0265,0.23812 0.0794,0.26459 0.39688,0.42334 0.66146,0.34397 l 2.11667,-0.68792 c 0.10583,-0.0265 0.21167,-0.10583 0.26458,-0.21167 0.23813,-0.23813 0.15875,-0.58208 -0.0794,-0.74083 z" />
    <g
       transform="translate(11.303538,-72.771425)"
       id="g1626">
      <path
         style="fill:#1a2037;fill-opacity:1;stroke-width:0.264583"
         d="m 139.99408,176.6875 v 14.81666 c 0,0.29105 -0.23812,0.52917 -0.52917,0.52917 h -10.05416 c -0.29104,0 -0.52917,-0.23812 -0.52917,-0.52917 V 176.6875 c 0,-0.87313 0.71438,-1.5875 1.5875,-1.5875 h 7.9375 c 0.87313,0 1.5875,0.71437 1.5875,1.5875 z m -1.5875,-0.52917 h -7.9375 c -0.26458,0 -0.50271,0.21167 -0.52917,0.47625 V 190.975 h 8.99584 v -14.2875 c 0,-0.26459 -0.21167,-0.50271 -0.47625,-0.52917 z"
         id="Combined-Shape_5_" />
      <path
         style="fill:#3996d4;fill-opacity:1;stroke-width:0.264583"
         d="m 134.967,177.22898 v 6.87916 c 0,0.15875 -0.10584,0.26459 -0.26459,0.26459 h -0.52916 c -0.15875,0 -0.26459,-0.10584 -0.26459,-0.26459 v -6.87916 c 0,-0.15875 0.10584,-0.26459 0.26459,-0.26459 h 0.52916 c 0.1323,0 0.26459,0.10584 0.26459,0.26459 z"
         class="st8"
         id="Rectangle_7_" />
      <circle
         style="stroke-width:0.264583"
         r="0.79374999"
         cy="188.84418"
         cx="134.41136"
         class="st8"
         id="Oval_6_" />
    </g>
  </g>
</svg>
